<?xml version="1.0" standalone="no"?>
<!DOCTYPE svg PUBLIC "-//W3C//DTD SVG 20010904//EN"
 "http://www.w3.org/TR/2001/REC-SVG-20010904/DTD/svg10.dtd">
<svg version="1.0" xmlns="http://www.w3.org/2000/svg"
 width="133.000000pt" height="133.000000pt" viewBox="0 0 133.000000 133.000000"
 preserveAspectRatio="xMidYMid meet">
<g transform="translate(0.000000,133.000000) scale(0.100000,-0.100000)"
fill="#000000" stroke="none">
<path d="M540 1273 c-58 -2 -109 -8 -114 -13 -6 -6 -33 -10 -62 -10 l-52 0 -5
-37 c-9 -77 -6 -291 6 -378 12 -89 13 -90 42 -93 43 -5 52 -19 17 -27 -48 -10
-94 -37 -181 -106 -64 -51 -81 -69 -81 -90 0 -15 7 -32 15 -39 8 -7 15 -19 15
-26 0 -11 25 -14 124 -14 l124 0 6 -31 c3 -17 6 -48 6 -69 0 -21 7 -43 15 -50
8 -7 15 -24 15 -39 0 -14 13 -51 29 -81 28 -54 29 -55 77 -58 53 -4 74 12 74
54 0 12 7 27 15 34 9 8 15 29 15 56 0 44 19 74 21 32 0 -13 13 -57 27 -98 27
-74 27 -75 67 -80 56 -8 79 5 99 53 9 23 22 50 27 60 5 10 14 41 19 70 6 29
15 71 22 95 l12 42 119 0 c111 0 120 1 138 23 24 29 25 89 1 110 -10 10 -22
17 -26 17 -3 0 -34 22 -69 49 -34 27 -87 60 -117 74 -36 17 -48 26 -33 26 45
2 53 11 53 60 0 26 5 52 11 58 15 15 23 189 14 306 l-7 97 -28 0 c-16 0 -31 4
-34 8 -3 5 -56 9 -118 11 -62 1 -131 3 -153 4 -22 2 -87 2 -145 0z m320 -271
c0 -8 -7 -11 -18 -8 -13 4 -28 -5 -50 -29 -51 -56 -87 -69 -182 -66 -28 1 -43
11 -86 57 -45 48 -53 53 -62 39 -5 -10 -12 -13 -15 -8 -3 5 1 20 9 32 l16 22
15 -21 c15 -21 20 -21 117 -15 56 4 117 3 136 -2 48 -13 84 -3 88 26 3 21 4
22 17 4 8 -10 15 -24 15 -31z"/>
</g>
</svg>
